<?xml version="1.0" encoding="UTF-8"?>
<svg width="19px" height="18px" viewBox="0 0 19 18" version="1.1" xmlns="http://www.w3.org/2000/svg" xmlns:xlink="http://www.w3.org/1999/xlink">
    <!-- Generator: Sketch 58 (84663) - https://sketch.com -->
    <title>button/formatting_dark</title>
    <desc>Created with Sketch.</desc>
    <g id="页面-1" stroke="none" stroke-width="1" fill="none" fill-rule="evenodd">
        <g id="首页2" transform="translate(-824.000000, -103.000000)" fill="#C5CFE0">
            <g id="button/formatting_dark" transform="translate(824.000000, 103.000000)">
                <path d="M3,18 C2.44771525,18 2,17.5522847 2,17 L2,10 L1,10 C0.44771525,10 0,9.55228475 0,9 L0,7 C0,6.44771525 0.44771525,6 1,6 L7,6 L7,1 C7,0.44771525 7.44771525,0 8,0 L11,0 C11.5522847,0 12,0.44771525 12,1 L12,6 L18,6 C18.5522847,6 19,6.44771525 19,7 L19,9 C19,9.55228475 18.5522847,10 18,10 L17,10 L17,17 C17,17.5522847 16.5522847,18 16,18 L3,18 Z M16,10 L3,10 L3,17 L5,17 L5,12.5 C5,12.2238576 5.22385763,12 5.5,12 C5.77614237,12 6,12.2238576 6,12.5 L6,17 L9,17 L9,12.5 C9,12.2238576 9.22385763,12 9.5,12 C9.77614237,12 10,12.2238576 10,12.5 L10,17 L13,17 L13,12.5 C13,12.2238576 13.2238576,12 13.5,12 C13.7761424,12 14,12.2238576 14,12.5 L14,17 L16,17 L16,10 Z M18,7 L1,7 L1,9 L18,9 L18,7 Z M11,1 L8,1 L8,6 L11,6 L11,1 Z" id="形状"></path>
            </g>
        </g>
    </g>
</svg>