<?xml version="1.0" encoding="UTF-8"?>
<svg width="18px" height="18px" viewBox="0 0 18 18" version="1.1" xmlns="http://www.w3.org/2000/svg" xmlns:xlink="http://www.w3.org/1999/xlink">
    <!-- Generator: Sketch 58 (84663) - https://sketch.com -->
    <title>button/mount_dark</title>
    <desc>Created with Sketch.</desc>
    <g id="页面-1" stroke="none" stroke-width="1" fill="none" fill-rule="evenodd">
        <g id="首页2" transform="translate(-870.000000, -103.000000)" fill="#C5CFE0">
            <g id="button/mount_dark" transform="translate(870.000000, 103.000000)">
                <path d="M16,0 C17.1045695,-2.02906125e-16 18,0.8954305 18,2 L18,16 C18,17.0543618 17.1841222,17.9181651 16.1492623,17.9945143 L16,18 L2,18 C0.8954305,18 1.3527075e-16,17.1045695 0,16 L0,2 C-1.3527075e-16,0.8954305 0.8954305,2.02906125e-16 2,0 L16,0 Z M14.5,17 C13.6715729,17 13,16.3284271 13,15.5 C13,14.6715729 13.6715729,14 14.5,14 C15.3284271,14 16,14.6715729 16,15.5 C16,16.3284271 15.3284271,17 14.5,17 Z M14.5,15 C14.2238576,15 14,15.2238576 14,15.5 C14,15.7761424 14.2238576,16 14.5,16 C14.7761424,16 15,15.7761424 15,15.5 C15,15.2238576 14.7761424,15 14.5,15 Z M16,1 L2,1 C1.48716416,1 1.06449284,1.38604019 1.00672773,1.88337887 L1,2 L0.999927519,13.2676063 C1.29411727,13.0974103 1.63568294,13 2,13 L16,13 C16.364732,13 16.7066608,13.0976323 17.0010775,13.2681881 L17,2 C17,1.44771525 16.5522847,1 16,1 Z M8.97487373,2.52512627 L11.0961941,4.64644661 C11.2914562,4.84170876 11.2914562,5.15829124 11.0961941,5.35355339 C10.9009319,5.54881554 10.5843494,5.54881554 10.3890873,5.35355339 L9.121,4.08567966 L9.12132022,11.5 C9.12132022,11.7761424 8.89746259,12 8.62132022,12 C8.34517784,12 8.12132022,11.7761424 8.12132022,11.5 L8.121,4.08567966 L6.85355339,5.35355339 C6.65829124,5.54881554 6.34170876,5.54881554 6.14644661,5.35355339 C5.95118446,5.15829124 5.95118446,4.84170876 6.14644661,4.64644661 L8.26776695,2.52512627 C8.4630291,2.32986412 8.77961159,2.32986412 8.97487373,2.52512627 Z M14.5,17 L16,17 C16.5128358,17 16.9355072,16.6139598 16.9932723,16.1166211 L17,16 L17,15 C17,14.4477153 16.5522847,14 16,14 L14.5,14 L2,14 C1.48716416,14 1.06449284,14.3860402 1.00672773,14.8833789 L1,15 L1,16 C1,16.5128358 1.38604019,16.9355072 1.88337887,16.9932723 L2,17 L14.5,17 L14.5,17 Z" id="形状结合"></path>
            </g>
        </g>
    </g>
</svg>