<?xml version="1.0" encoding="UTF-8"?>
<svg width="18px" height="18px" viewBox="0 0 18 18" version="1.1" xmlns="http://www.w3.org/2000/svg" xmlns:xlink="http://www.w3.org/1999/xlink">
    <!-- Generator: Sketch 58 (84663) - https://sketch.com -->
    <title>button/Space to adjus_dark</title>
    <desc>Created with Sketch.</desc>
    <g id="页面-1" stroke="none" stroke-width="1" fill="none" fill-rule="evenodd">
        <g id="首页2" transform="translate(-962.000000, -103.000000)" fill="#C5CFE0">
            <g id="button/Space-to-adjus_dark" transform="translate(962.000000, 103.000000)">
                <path d="M6,10 C7.1045695,10 8,10.8954305 8,12 L8,16 C8,17.1045695 7.1045695,18 6,18 L2,18 C0.8954305,18 1.3527075e-16,17.1045695 0,16 L0,12 C-1.3527075e-16,10.8954305 0.8954305,10 2,10 L6,10 Z M14,10 C16.209139,10 18,11.790861 18,14 C18,16.209139 16.209139,18 14,18 C11.790861,18 10,16.209139 10,14 C10,11.790861 11.790861,10 14,10 Z M6,11 L2,11 C1.48716416,11 1.06449284,11.3860402 1.00672773,11.8833789 L1,12 L1,16 C1,16.5128358 1.38604019,16.9355072 1.88337887,16.9932723 L2,17 L6,17 C6.51283584,17 6.93550716,16.6139598 6.99327227,16.1166211 L7,16 L7,12 C7,11.4477153 6.55228475,11 6,11 Z M14,11 C12.3431458,11 11,12.3431458 11,14 C11,15.6568542 12.3431458,17 14,17 C15.6568542,17 17,15.6568542 17,14 C17,12.3431458 15.6568542,11 14,11 Z M6,0 C7.1045695,-2.02906125e-16 8,0.8954305 8,2 L8,6 C8,7.1045695 7.1045695,8 6,8 L2,8 C0.8954305,8 1.3527075e-16,7.1045695 0,6 L0,2 C-1.3527075e-16,0.8954305 0.8954305,2.02906125e-16 2,0 L6,0 Z M16,0 C17.1045695,-2.02906125e-16 18,0.8954305 18,2 L18,6 C18,7.1045695 17.1045695,8 16,8 L12,8 C10.8954305,8 10,7.1045695 10,6 L10,2 C10,0.8954305 10.8954305,2.02906125e-16 12,0 L16,0 Z M6,1 L2,1 C1.48716416,1 1.06449284,1.38604019 1.00672773,1.88337887 L1,2 L1,6 C1,6.51283584 1.38604019,6.93550716 1.88337887,6.99327227 L2,7 L6,7 C6.51283584,7 6.93550716,6.61395981 6.99327227,6.11662113 L7,6 L7,2 C7,1.44771525 6.55228475,1 6,1 Z M16,1 L12,1 C11.4871642,1 11.0644928,1.38604019 11.0067277,1.88337887 L11,2 L11,6 C11,6.51283584 11.3860402,6.93550716 11.8833789,6.99327227 L12,7 L16,7 C16.5128358,7 16.9355072,6.61395981 16.9932723,6.11662113 L17,6 L17,2 C17,1.44771525 16.5522847,1 16,1 Z" id="形状结合"></path>
            </g>
        </g>
    </g>
</svg>