<?xml version="1.0" encoding="UTF-8"?>
<svg width="18px" height="18px" viewBox="0 0 18 18" version="1.1" xmlns="http://www.w3.org/2000/svg" xmlns:xlink="http://www.w3.org/1999/xlink">
    <!-- Generator: Sketch 58 (84663) - https://sketch.com -->
    <title>button/uninstall</title>
    <desc>Created with Sketch.</desc>
    <g id="页面-1" stroke="none" stroke-width="1" fill="none" fill-rule="evenodd">
        <g id="首页2" transform="translate(-916.000000, -75.000000)" fill="#536076">
            <g id="button/uninstall" transform="translate(916.000000, 75.000000)">
                <path d="M12,0 C12.5522847,-1.01453063e-16 13,0.44771525 13,1 L13,3 L17.5,3 C17.7761424,3 18,3.22385763 18,3.5 C18,3.77614237 17.7761424,4 17.5,4 L16,4 L16,16 C16,17.1045695 15.1045695,18 14,18 L4,18 C2.8954305,18 2,17.1045695 2,16 L2,4 L0.5,4 C0.223857625,4 3.38176876e-17,3.77614237 0,3.5 C-3.38176876e-17,3.22385763 0.223857625,3 0.5,3 L5,3 L5,1 C5,0.44771525 5.44771525,1.01453063e-16 6,0 L12,0 Z M15,4 L3,4 L3,16 C3,16.5128358 3.38604019,16.9355072 3.88337887,16.9932723 L4,17 L14,17 C14.5128358,17 14.9355072,16.6139598 14.9932723,16.1166211 L15,16 L15,4 Z M6.87867966,7.17157288 L9.00070711,9.29218611 L11.1213203,7.17157288 C11.3165825,6.97631073 11.633165,6.97631073 11.8284271,7.17157288 C12.0236893,7.36683502 12.0236893,7.68341751 11.8284271,7.87867966 L9.70710678,10 L11.8284271,12.1213203 C12.0236893,12.3165825 12.0236893,12.633165 11.8284271,12.8284271 C11.633165,13.0236893 11.3165825,13.0236893 11.1213203,12.8284271 L9,10.7071068 L6.87867966,12.8284271 C6.68341751,13.0236893 6.36683502,13.0236893 6.17157288,12.8284271 C5.97631073,12.633165 5.97631073,12.3165825 6.17157288,12.1213203 L8.29289322,10 L6.17157288,7.87867966 C5.97631073,7.68341751 5.97631073,7.36683502 6.17157288,7.17157288 C6.36683502,6.97631073 6.68341751,6.97631073 6.87867966,7.17157288 Z M12,1 L6,1 L6,3 L12,3 L12,1 Z" id="形状结合"></path>
            </g>
        </g>
    </g>
</svg>