<?xml version="1.0" encoding="UTF-8"?>
<svg width="36px" height="36px" viewBox="0 0 36 36" version="1.1" xmlns="http://www.w3.org/2000/svg" xmlns:xlink="http://www.w3.org/1999/xlink">
    <!-- Generator: Sketch 58 (84663) - https://sketch.com -->
    <title>button/uninstall_dark</title>
    <desc>Created with Sketch.</desc>
    <defs>
        <linearGradient x1="50%" y1="0%" x2="50%" y2="95.6533653%" id="linearGradient-1">
            <stop stop-color="#484848" offset="0%"></stop>
            <stop stop-color="#414141" offset="100%"></stop>
        </linearGradient>
        <rect id="path-2" x="0" y="0" width="36" height="36" rx="8"></rect>
        <filter x="-19.4%" y="-13.9%" width="138.9%" height="138.9%" filterUnits="objectBoundingBox" id="filter-3">
            <feOffset dx="0" dy="2" in="SourceAlpha" result="shadowOffsetOuter1"></feOffset>
            <feGaussianBlur stdDeviation="2" in="shadowOffsetOuter1" result="shadowBlurOuter1"></feGaussianBlur>
            <feComposite in="shadowBlurOuter1" in2="SourceAlpha" operator="out" result="shadowBlurOuter1"></feComposite>
            <feColorMatrix values="0 0 0 0 0   0 0 0 0 0   0 0 0 0 0  0 0 0 0.05 0" type="matrix" in="shadowBlurOuter1"></feColorMatrix>
        </filter>
    </defs>
    <g id="button/uninstall_dark" stroke="none" stroke-width="1" fill="none" fill-rule="evenodd">
        <g id="Rectangle-9">
            <use fill="black" fill-opacity="1" filter="url(#filter-3)" xlink:href="#path-2"></use>
            <use fill-opacity="0.08" fill="#000000" fill-rule="evenodd" xlink:href="#path-2"></use>
            <rect stroke-opacity="0.03" stroke="#FFFFFF" stroke-width="1" stroke-linejoin="square" fill="url(#linearGradient-1)" fill-rule="evenodd" x="0.5" y="0.5" width="35" height="35" rx="8"></rect>
        </g>
        <rect id="矩形" stroke="#C5CFE0" x="14.5" y="9.5" width="7" height="3" rx="1"></rect>
        <rect id="矩形" stroke="#C5CFE0" x="9.5" y="12.5" width="17" height="1" rx="0.5"></rect>
        <rect id="矩形" stroke="#C5CFE0" x="11.5" y="12.5" width="13" height="14" rx="1"></rect>
        <path d="M18,15 C18.2761424,15 18.5,15.2238576 18.5,15.5 L18.5,18.5 L21.5,18.5 C21.7761424,18.5 22,18.7238576 22,19 C22,19.2761424 21.7761424,19.5 21.5,19.5 L18.5,19.5 L18.5,22.5 C18.5,22.7761424 18.2761424,23 18,23 C17.7238576,23 17.5,22.7761424 17.5,22.5 L17.5,19.5 L14.5,19.5 C14.2238576,19.5 14,19.2761424 14,19 C14,18.7238576 14.2238576,18.5 14.5,18.5 L17.5,18.499 L17.5,15.5 C17.5,15.2238576 17.7238576,15 18,15 Z" id="形状结合" fill="#C5CFE0" transform="translate(18.000000, 19.000000) rotate(-315.000000) translate(-18.000000, -19.000000) "></path>
    </g>
</svg>