<?xml version="1.0" encoding="UTF-8"?>
<svg width="85px" height="85px" viewBox="0 0 85 85" version="1.1" xmlns="http://www.w3.org/2000/svg" xmlns:xlink="http://www.w3.org/1999/xlink">
    <!-- Generator: Sketch 58 (84663) - https://sketch.com -->
    <title>disk-85px</title>
    <desc>Created with Sketch.</desc>
    <defs>
        <filter x="-18.8%" y="-16.0%" width="137.5%" height="132.0%" filterUnits="objectBoundingBox" id="filter-1">
            <feOffset dx="0" dy="2" in="SourceAlpha" result="shadowOffsetOuter1"></feOffset>
            <feGaussianBlur stdDeviation="2" in="shadowOffsetOuter1" result="shadowBlurOuter1"></feGaussianBlur>
            <feComposite in="shadowBlurOuter1" in2="SourceAlpha" operator="out" result="shadowBlurOuter1"></feComposite>
            <feColorMatrix values="0 0 0 0 0   0 0 0 0 0   0 0 0 0 0  0 0 0 0.2 0" type="matrix" in="shadowBlurOuter1" result="shadowMatrixOuter1"></feColorMatrix>
            <feMerge>
                <feMergeNode in="shadowMatrixOuter1"></feMergeNode>
                <feMergeNode in="SourceGraphic"></feMergeNode>
            </feMerge>
        </filter>
        <linearGradient x1="102.549264%" y1="57.6822305%" x2="-2.65228894%" y2="57.6822305%" id="linearGradient-2">
            <stop stop-color="#0067BC" offset="0%"></stop>
            <stop stop-color="#30EA7F" offset="4.57146722%"></stop>
            <stop stop-color="#00D887" offset="9.93130604%"></stop>
            <stop stop-color="#00B160" offset="88.9446523%"></stop>
            <stop stop-color="#00C165" offset="93.7925209%"></stop>
            <stop stop-color="#008CBD" offset="100%"></stop>
        </linearGradient>
        <linearGradient x1="100%" y1="56.4295561%" x2="0%" y2="56.4295561%" id="linearGradient-3">
            <stop stop-color="#FFFFFF" stop-opacity="0.5" offset="0%"></stop>
            <stop stop-color="#FFFFFF" offset="8.38902143%"></stop>
            <stop stop-color="#FFFFFF" stop-opacity="0.8" offset="52.3560063%"></stop>
            <stop stop-color="#FFFFFF" offset="88.1683526%"></stop>
            <stop stop-color="#FFFFFF" stop-opacity="0.5" offset="100%"></stop>
        </linearGradient>
        <radialGradient cx="48.2392027%" cy="19.1031265%" fx="48.2392027%" fy="19.1031265%" r="78.6539217%" gradientTransform="translate(0.482392,0.191031),scale(0.205882,1.000000),rotate(90.000000),scale(1.000000,3.580713),translate(-0.482392,-0.191031)" id="radialGradient-4">
            <stop stop-color="#7CFFFE" offset="0%"></stop>
            <stop stop-color="#D6CDE6" offset="100%"></stop>
        </radialGradient>
        <linearGradient x1="50%" y1="0%" x2="50%" y2="100%" id="linearGradient-5">
            <stop stop-color="#0174FF" offset="0%"></stop>
            <stop stop-color="#01C2FF" offset="50.8499801%"></stop>
            <stop stop-color="#0056FF" offset="100%"></stop>
        </linearGradient>
    </defs>
    <g id="disk-85px" stroke="none" stroke-width="1" fill="none" fill-rule="evenodd">
        <g id="Group-2备份" filter="url(#filter-1)" transform="translate(11.000000, 5.000000)">
            <path d="M0,11.2427031 C0,5.03352962 5.02896886,0 11.2504734,0 L52.4995266,0 C58.7129915,0 63.75,5.04516118 63.75,11.2427031 L63.75,65.6205007 C63.75,67.6940534 62.0776103,69.375 60.0001492,69.375 L3.74985075,69.375 C1.67886537,69.375 0,67.6944776 0,65.6205007 L0,11.2427031 Z" id="Rectangle-1" fill="url(#linearGradient-2)"></path>
            <path d="M0.9375,68.4376024 C0.937656202,68.4375302 0.937873146,68.4375 0.938168545,68.4375 L62.8118315,68.4375 C62.8117688,68.4375 62.8125,68.4367762 62.8125,68.4436897 L62.8125,59.9998937 C62.8125,56.3732576 59.8755485,53.4375 56.2496018,53.4375 L7.50039818,53.4375 C3.87707704,53.4375 0.9375,56.3763334 0.9375,59.9998937 L0.9375,68.4376022 Z" id="Rectangle-3" stroke-opacity="0.5" stroke="#FFFFFF" stroke-width="1.875" fill="url(#linearGradient-3)"></path>
            <path d="M0.9375,68.4375 C0.9375,71.5392812 3.4606315,74.0625 6.56736688,74.0625 L57.1826331,74.0625 C60.2878845,74.0625 62.8125,71.5415133 62.8125,68.4375 C62.8125,65.3357188 60.2893685,62.8125 57.1826331,62.8125 L6.56736688,62.8125 C3.4621155,62.8125 0.9375,65.3334867 0.9375,68.4375 Z" id="Rectangle-1" stroke-opacity="0.2" stroke="#003D9C" stroke-width="1.875" fill="url(#radialGradient-4)"></path>
            <g id="Group" transform="translate(36.562500, 65.625000)" fill="url(#linearGradient-5)">
                <path d="M20.625,0 C21.142767,0 21.5625,0.422789231 21.5625,0.928854346 L21.5625,4.69614565 C21.5625,5.17249545 21.2036998,5.56509555 20.7349993,5.61875092 L20.625,5.625 C20.107233,5.625 19.6875,5.20221077 19.6875,4.69614565 L19.6875,0.928854346 C19.6875,0.452504548 20.0463002,0.0599044541 20.5150007,0.00624908248 L20.625,0 Z M16.875,0 C17.392767,0 17.8125,0.422789231 17.8125,0.928854346 L17.8125,4.69614565 C17.8125,5.17249545 17.4536998,5.56509555 16.9849993,5.61875092 L16.875,5.625 C16.357233,5.625 15.9375,5.20221077 15.9375,4.69614565 L15.9375,0.928854346 C15.9375,0.452504548 16.2963002,0.0599044541 16.7650007,0.00624908248 L16.875,0 Z M13.125,0 C13.642767,0 14.0625,0.422789231 14.0625,0.928854346 L14.0625,4.69614565 C14.0625,5.17249545 13.7036998,5.56509555 13.2349993,5.61875092 L13.125,5.625 C12.607233,5.625 12.1875,5.20221077 12.1875,4.69614565 L12.1875,0.928854346 C12.1875,0.452504548 12.5463002,0.0599044541 13.0150007,0.00624908248 L13.125,0 Z M9.375,0 C9.89276695,0 10.3125,0.422789231 10.3125,0.928854346 L10.3125,4.69614565 C10.3125,5.17249545 9.95369983,5.56509555 9.48499927,5.61875092 L9.375,5.625 C8.85723305,5.625 8.4375,5.20221077 8.4375,4.69614565 L8.4375,0.928854346 C8.4375,0.452504548 8.79630017,0.0599044541 9.26500073,0.00624908248 L9.375,0 Z M5.625,0 C6.14276695,0 6.5625,0.422789231 6.5625,0.928854346 L6.5625,4.69614565 C6.5625,5.17249545 6.20369983,5.56509555 5.73499927,5.61875092 L5.625,5.625 C5.10723305,5.625 4.6875,5.20221077 4.6875,4.69614565 L4.6875,0.928854346 C4.6875,0.452504548 5.04630017,0.0599044541 5.51500073,0.00624908248 L5.625,0 Z M1.875,0 C2.39276695,0 2.8125,0.422789231 2.8125,0.928854346 L2.8125,4.69614565 C2.8125,5.17249545 2.45369983,5.56509555 1.98499927,5.61875092 L1.875,5.625 C1.35723305,5.625 0.9375,5.20221077 0.9375,4.69614565 L0.9375,0.928854346 C0.9375,0.452504548 1.29630017,0.0599044541 1.76500073,0.00624908248 L1.875,0 Z" id="Combined-Shape"></path>
            </g>
            <path d="M7.5,70.3125 C8.53553391,70.3125 9.375,69.4730339 9.375,68.4375 C9.375,67.4019661 8.53553391,66.5625 7.5,66.5625 C6.46446609,66.5625 5.625,67.4019661 5.625,68.4375 C5.625,69.4730339 6.46446609,70.3125 7.5,70.3125 Z" id="Oval" stroke="#54D800" stroke-width="1.875" fill="#A5F532"></path>
        </g>
    </g>
</svg>